<svg height="512" viewBox="0 0 128 128" width="512" xmlns="http://www.w3.org/2000/svg"><g><path d="m74.06 10.447 7.658-7.054 2.629 10.075a14.849 14.849 0 0 0 16.926 10.877l10.256-1.793-3.235 9.9a14.85 14.85 0 0 0 8.358 18.3l9.6 4.036-8.072 6.576a14.848 14.848 0 0 0 -2.863 19.915l5.892 8.584-10.348 1.167a14.85 14.85 0 0 0 -13.176 15.206l.315 10.407-9.335-4.611a14.85 14.85 0 0 0 -19.3 5.668l-5.365 8.926-5.361-8.926a14.85 14.85 0 0 0 -19.3-5.668l-9.339 4.611.316-10.407a14.85 14.85 0 0 0 -13.177-15.206l-10.346-1.169 5.892-8.584a14.849 14.849 0 0 0 -2.863-19.915l-8.072-6.576 9.6-4.036a14.85 14.85 0 0 0 8.358-18.3l-3.235-9.9 10.256 1.793a14.849 14.849 0 0 0 16.924-10.875l2.629-10.075 7.658 7.054a14.849 14.849 0 0 0 20.12 0z" fill="#ffe671"/><circle cx="64" cy="64.025" fill="#ffae4d" r="34.946" transform="matrix(.16 -.987 .987 .16 -9.45 116.943)"/><path d="m89.219 65.727a1.7 1.7 0 0 1 -1.7-1.7 23.543 23.543 0 0 0 -23.519-23.519 1.7 1.7 0 0 1 0-3.408 26.952 26.952 0 0 1 26.921 26.925 1.7 1.7 0 0 1 -1.702 1.702z" fill="#ff9b36"/></g></svg>